<?xml version="1.0" encoding="UTF-8"?>
<svg width="400" height="400" version="1.2" viewBox="0 0 300 300" xmlns="http://www.w3.org/2000/svg">
 <g>
  <rect x="1.2225e-11" y="-2.5915e-11" width="300.28" height="300" fill="#0c161c" stroke-width="2.9543"/>
 </g>
 <g transform="translate(-.00035248 -.0012044)">
  <path d="m172.91 118.74 6.4558-21.729 6.6124 21.729zm32.198 18.979-16.95-51.277c-0.37572-1.1334-0.80777-1.8723-1.2899-2.2229-0.48215-0.34439-1.2649-0.52598-2.3356-0.52598h-9.3612c-1.077 0-1.8723 0.19411-2.3857 0.5698-0.50719 0.36944-0.92672 1.1021-1.2461 2.1791l-17.107 51.277c-0.21915 0.26926-0.3256 0.80151-0.3256 1.6093 0 1.2398 0.75767 1.8534 2.2605 1.8534h7.0194c0.65122 0 1.1709-0.025 1.5717-0.0752 0.40701-0.0563 0.72636-0.1941 0.97057-0.40699 0.2442-0.21292 0.4571-0.53852 0.64494-0.96433 0.18786-0.4383 0.38823-1.0019 0.6074-1.6969l2.6613-8.9668h19.286l2.7426 8.804c0.21916 0.7514 0.43206 1.3463 0.64497 1.7784 0.21288 0.4258 0.45709 0.76392 0.72635 1.0081 0.26926 0.23795 0.5886 0.38823 0.97056 0.44458 0.36945 0.05 0.85786 0.0752 1.4527 0.0752h7.5016c1.5028 0 2.2606-0.61366 2.2606-1.8534 0-0.37571-0.0128-0.63244-0.0375-0.76395-0.0313-0.1377-0.1252-0.41952-0.28177-0.84532m-8.3218 20.639h-5.4101c-1.3964 0-2.3231 0.20664-2.7802 0.60738-0.45709 0.40701-0.68252 1.2273-0.68252 2.4609v30.438l-15.98-30.519c-0.64495-1.2899-1.2774-2.1102-1.8973-2.4609-0.61993-0.35073-1.7094-0.52599-3.2687-0.52599h-5.0031c-1.3964 0-2.3293 0.20665-2.7865 0.6074-0.45085 0.407-0.68252 1.2273-0.68252 2.4609v51.352c0 1.2461 0.2129 2.0602 0.64495 2.4672 0.43207 0.40075 1.3463 0.60113 2.7426 0.60113h5.4915c1.3964 0 2.3231-0.20038 2.7802-0.60113 0.45709-0.407 0.68252-1.221 0.68252-2.4672v-30.519l15.98 30.601c0.64495 1.2962 1.2774 2.1164 1.8973 2.4609 0.61991 0.35691 1.7094 0.52598 3.2687 0.52598h5.0031c1.3964 0 2.3231-0.20038 2.7802-0.60113 0.45712-0.40699 0.6888-1.221 0.6888-2.4672v-51.352c0-1.2335-0.23168-2.0538-0.6888-2.4609-0.45708-0.40074-1.3838-0.60738-2.7802-0.60738m26.801-4.859 13.932 13.926v70.163h-175.64v-70.168l13.914-13.92c2.0602-2.0602 2.0602-5.3976 0-7.4514l-13.914-13.92v-70.174h175.64v70.163l-13.932 13.926c-2.0602 2.0602-2.0602 5.3976 0 7.4576m26.518-104.13h-200.81v88.803l11.603 11.603-11.603 11.603v88.798h200.81v-88.798l-11.603-11.603 11.603-11.603zm-111.53 154.53h-22.679l23.881-33.581c0.37571-0.53851 0.61991-0.97057 0.73262-1.2962 0.10644-0.31934 0.15661-0.69505 0.15661-1.1271v-6.462c0-1.2336-0.22541-2.0538-0.68252-2.4609-0.46336-0.40075-1.3964-0.60739-2.799-0.60739h-34.484c-1.2461 0-2.0538 0.23168-2.4295 0.68253-0.38197 0.46336-0.56982 1.4151-0.56982 2.8742v4.8402c0 1.4527 0.18785 2.4108 0.56982 2.8679 0.37571 0.45711 1.1835 0.68879 2.4295 0.68879h21.283l-23.556 33.581c-0.59488 0.75767-0.89544 1.5153-0.89544 2.2606v6.6249c0 1.2461 0.23169 2.0602 0.69507 2.4672 0.45084 0.40075 1.3838 0.60112 2.7927 0.60112h35.554c1.2461 0 2.0538-0.22542 2.4358-0.68252 0.37571-0.45711 0.56357-1.4089 0.56357-2.8679v-4.8465c0-1.4527-0.18786-2.4045-0.56357-2.8617-0.38197-0.46336-1.1897-0.69505-2.4358-0.69505m-10.557-85.642c0 2.2104-0.14411 4.0575-0.4446 5.5353-0.29428 1.4778-0.77644 2.68-1.4527 3.5942-0.67001 0.90795-1.5529 1.5529-2.6613 1.9348-1.1021 0.37571-2.4609 0.56357-4.0702 0.56357h-6.6186v-34.884h6.6186c3.062 0 5.2662 0.90794 6.6124 2.7051 1.3463 1.8034 2.0162 4.784 2.0162 8.9292zm11.54-23.332c-1.8848-3.8259-4.452-6.6499-7.7019-8.4784-3.2624-1.8346-7.3574-2.7488-12.311-2.7488h-16.537c-1.4026 0-2.3293 0.20663-2.7865 0.60738-0.45711 0.40702-0.6888 1.2273-0.6888 2.4609v51.358c0 1.2398 0.23169 2.0538 0.6888 2.4609 0.4571 0.40076 1.3838 0.60113 2.7865 0.60113h18.553c8.7727 0 14.771-3.7382 17.997-11.221 0.7514-1.7219 1.2774-3.4564 1.5717-5.2098 0.30056-1.7469 0.4446-3.97 0.4446-6.6563v-10.902c0-3.0683-0.14412-5.4916-0.4446-7.2699-0.29429-1.7784-0.82029-3.4439-1.5717-5.0031" fill="#fafafa" stroke-width="1.603"/>
 </g>
</svg>
